{
	"asset":{
		"generator":"Khronos glTF Blender I/O v4.3.47",
		"version":"2.0"
	},
	"scene":0,
	"scenes":[
		{
			"name":"Scene",
			"nodes":[
				0,
				3
			]
		}
	],
	"nodes":[
		{
			"mesh":0,
			"name":"easel.004",
			"scale":[
				0.009999999776482582,
				0.009999999776482582,
				0.009999999776482582
			],
			"translation":[
				0,
				-0.006114404648542404,
				0
			]
		},
		{
			"mesh":1,
			"name":"painting1.003"
		},
		{
			"children":[
				1
			],
			"name":"painting1.001"
		},
		{
			"children":[
				2
			],
			"name":"painting1",
			"rotation":[
				0,
				0,
				0.13052619993686676,
				0.9914449453353882
			],
			"scale":[
				0.002399752615019679,
				0.06021016091108322,
				0.04172458499670029
			],
			"translation":[
				-0.002147675957530737,
				0.06450792402029037,
				0
			]
		}
	],
	"materials":[
		{
			"name":"finalPainting",
			"occlusionTexture":{
				"index":0
			},
			"pbrMetallicRoughness":{
				"baseColorTexture":{
					"index":1
				},
				"metallicRoughnessTexture":{
					"index":0
				}
			}
		},
		{
			"name":"finalPainting_1",
			"occlusionTexture":{
				"index":2
			},
			"pbrMetallicRoughness":{
				"baseColorTexture":{
					"index":3
				},
				"metallicRoughnessTexture":{
					"index":2
				}
			}
		}
	],
	"meshes":[
		{
			"name":"easel.004",
			"primitives":[
				{
					"attributes":{
						"POSITION":0,
						"NORMAL":1,
						"TEXCOORD_0":2
					},
					"indices":3,
					"material":0
				}
			]
		},
		{
			"name":"painting1.003",
			"primitives":[
				{
					"attributes":{
						"POSITION":4,
						"NORMAL":5,
						"TEXCOORD_0":6
					},
					"indices":7,
					"material":1
				}
			]
		}
	],
	"textures":[
		{
			"sampler":0,
			"source":0
		},
		{
			"sampler":0,
			"source":1
		},
		{
			"sampler":0,
			"source":2
		},
		{
			"sampler":0,
			"source":3
		}
	],
	"images":[
		{
			"mimeType":"image/jpeg",
			"name":"finalPainting_occlusionRoughnessMetallic",
			"uri":"textures/finalPainting_occlusionRoughnessMetallic.jpg"
		},
		{
			"mimeType":"image/jpeg",
			"name":"finalPainting_baseColor",
			"uri":"textures/finalPainting_baseColor.jpg"
		},
		{
			"mimeType":"image/jpeg",
			"name":"finalPainting_1_occlusionRoughnessMetallic",
			"uri":"textures/finalPainting_1_occlusionRoughnessMetallic.jpg"
		},
		{
			"mimeType":"image/jpeg",
			"name":"finalPainting_1_baseColor",
			"uri":"textures/finalPainting_1_baseColor.jpg"
		}
	],
	"accessors":[
		{
			"bufferView":0,
			"componentType":5126,
			"count":931,
			"max":[
				1.3547468185424805,
				11.536428451538086,
				2.0000007152557373
			],
			"min":[
				-4.1466264724731445,
				0.6100749969482422,
				-2
			],
			"type":"VEC3"
		},
		{
			"bufferView":1,
			"componentType":5126,
			"count":931,
			"type":"VEC3"
		},
		{
			"bufferView":2,
			"componentType":5126,
			"count":931,
			"type":"VEC2"
		},
		{
			"bufferView":3,
			"componentType":5123,
			"count":2760,
			"type":"SCALAR"
		},
		{
			"bufferView":4,
			"componentType":5126,
			"count":2246,
			"max":[
				0.5000014305114746,
				0.5000002980232239,
				0.4999999701976776
			],
			"min":[
				-0.5000019073486328,
				-0.5000000596046448,
				-0.4999999701976776
			],
			"type":"VEC3"
		},
		{
			"bufferView":5,
			"componentType":5126,
			"count":2246,
			"type":"VEC3"
		},
		{
			"bufferView":6,
			"componentType":5126,
			"count":2246,
			"type":"VEC2"
		},
		{
			"bufferView":7,
			"componentType":5123,
			"count":6048,
			"type":"SCALAR"
		}
	],
	"bufferViews":[
		{
			"buffer":0,
			"byteLength":11172,
			"byteOffset":0,
			"target":34962
		},
		{
			"buffer":0,
			"byteLength":11172,
			"byteOffset":11172,
			"target":34962
		},
		{
			"buffer":0,
			"byteLength":7448,
			"byteOffset":22344,
			"target":34962
		},
		{
			"buffer":0,
			"byteLength":5520,
			"byteOffset":29792,
			"target":34963
		},
		{
			"buffer":0,
			"byteLength":26952,
			"byteOffset":35312,
			"target":34962
		},
		{
			"buffer":0,
			"byteLength":26952,
			"byteOffset":62264,
			"target":34962
		},
		{
			"buffer":0,
			"byteLength":17968,
			"byteOffset":89216,
			"target":34962
		},
		{
			"buffer":0,
			"byteLength":12096,
			"byteOffset":107184,
			"target":34963
		}
	],
	"samplers":[
		{
			"magFilter":9729,
			"minFilter":9987
		}
	],
	"buffers":[
		{
			"byteLength":119280,
			"uri":"finalPainting.bin"
		}
	]
}
